<svg xmlns="http://www.w3.org/2000/svg" xmlns:svg="http://www.w3.org/2000/svg" id="svg2" width="512" height="512" version="1.1" viewBox="0 0 512 512"><metadata id="metadata7"/><g id="layer1" transform="translate(0,-540.36216)"><path style="opacity:1;fill:#b3b3b3;fill-opacity:1;stroke:none;stroke-width:80;stroke-linecap:round;stroke-linejoin:round;stroke-miterlimit:4;stroke-dasharray:none;stroke-opacity:1" id="path4136" d="M 256 0 A 256 256 0 0 0 0 256 A 256 256 0 0 0 256 512 A 256 256 0 0 0 512 256 A 256 256 0 0 0 256 0 z M 157.59961 116 L 158.80078 116 C 165.20078 116 172.40039 119.19922 176.40039 125.19922 L 256 235.59961 L 335.59961 125.19922 C 339.99961 119.19922 346.39961 116 353.59961 116 L 354 116 C 366 116.4 376.40039 126 376.40039 138 L 376.40039 374 C 376.40039 386 366 396 354 396 C 341.6 396 332 386 332 374 L 332 205.59961 L 274.40039 285.59961 C 270.00039 291.59961 263.60039 294.80078 256.40039 294.80078 L 256 294.80078 L 255.59961 294.80078 C 248.39961 294.80078 241.59922 291.59961 237.19922 285.59961 L 180 205.59961 L 180 374 C 180 386 169.99961 396 157.59961 396 C 145.59961 396 135.59961 386 135.59961 374 L 135.59961 138 C 135.59961 126 145.59961 116 157.59961 116 z" transform="translate(0,540.36216)"/></g></svg>